<svg id="图层_1" data-name="图层 1" xmlns="http://www.w3.org/2000/svg" viewBox="1224 500 860 860"><defs><style>.cls-1,.cls-3{fill:#fff;}.cls-1{fill-rule:evenodd;}.cls-2{fill:#1463d3;}.cls-4{opacity:0.6;}.cls-5{fill:#2ea5fc;}</style></defs><title>画板 1</title><path id="_复合路径_" data-name="&lt;复合路径&gt;" class="cls-1" d="M314,640.83c160.4,0,290.43,130.9,290.43,292.38S474.38,1225.6,314,1225.6,23.55,1094.69,23.55,933.21,153.58,640.83,314,640.83Z"/><path id="_路径_" data-name="&lt;路径&gt;" class="cls-2" d="M502.33,781.41c-1.09,11.31-3.89,22.2-9.69,30.08-45.7,62-112.25,35.08-245.12,18.29-62.46-7.89-144.36,9.53-168.19,78.35A114.88,114.88,0,0,0,74,931.88c-2.06,130.43,99.33,238.58,229.49,243,132.45,4.54,244.53-100,250.34-233.49A240.07,240.07,0,0,0,502.33,781.41Z"/><g id="_编组_" data-name="&lt;编组&gt;"><path class="cls-3" d="M1002,910.74h91.25l24.44-138.28H749.16l-5.25,29.69h277.26Zm80.13,69.54H958.75l28.58-161.73H898.05L869.46,980.28H711.25L706,1010h85L686.21,1133H793.9L891,1011.14l54,121.87h108.09l-61.66-123h85.37ZM855.75,818.55H769.6l12.26,68h85.77ZM758.38,966.21h85.76l-11.48-68H746.11Zm451.52,53.91-35.27,110.94H1240l35.27-110.94Zm164.84,110.94h63l7.86-110.94h-63.44Zm1.2-285.94,19-34.38h-83l-19.39,34.38h-60.31l-27.14,153.52h90.07l-16.5,93.36c-1.1,6.25-6.7,11.32-13,11.32h-11.35l-5.25,29.69h56c24.67,0,48.23-20.31,52.52-44.53l15.88-89.84h47.38c21.93,0,42.27-17.58,46.14-39.46l20.16-114.06Zm11.33,117.58c-1,5.47-6.43,9.76-11.91,9.76h-86.15l6.63-37.5h96.33Zm9.6-54.3h-96.34l6.56-37.11h96.34Zm102.58-106.25,5.25-29.69H1142.07L1078.34,1133h86.15L1223,802.15ZM1611.63,844l-3.72-80.86h-75.58l3.33,80.86Zm-16.34,96.87-4.5-80.86h-75.58l4.11,80.86Zm-79.22,18.36-49,173.05h75.58l49.39-173.05Zm278.39-143.75,9.6-54.3h-69.71l-9.59,54.3h-94.38l-55.72,315.24h216.56c23.1,0,44.48-16.8,48.07-37.11l49.16-278.13ZM1674.28,1101h-22.71l20.23-114.45h22.71Zm25.48-144.14h-22.71l19.75-111.72h22.71Zm68.48,133.2c-1.1,6.25-7,10.94-14.07,10.94H1744l20.23-114.45h22.32Zm23.55-133.2h-22.32l19.75-111.72h22.32Z"/></g><g id="_编组_2" data-name="&lt;编组&gt;" class="cls-4"><path id="_路径_2" data-name="&lt;路径&gt;" class="cls-5" d="M303.45,1174.92c100.18,3.43,188.69-55.54,228.4-142.24A591.49,591.49,0,0,0,455,1012.57c-155-29.75-294,5.33-324.26,78.7A236.08,236.08,0,0,0,303.45,1174.92Z"/></g><g id="_编组_3" data-name="&lt;编组&gt;" class="cls-4"><path id="_路径_3" data-name="&lt;路径&gt;" class="cls-5" d="M74,931.44l-.06.44c-2.06,130.43,99.33,238.58,229.49,243a238.76,238.76,0,0,0,103-19.42A583.94,583.94,0,0,0,364,1090C270.3,964.59,145,897.54,74,931.44Z"/></g></svg>
