<svg id="图层_1" data-name="图层 1" xmlns="http://www.w3.org/2000/svg" viewBox="0 0 3500 600"><defs><style>.cls-1,.cls-5{fill:#fff;}.cls-1{fill-rule:evenodd;}.cls-2{fill:#1463d3;}.cls-3{opacity:0.6;}.cls-4{fill:#2ea5fc;}</style></defs><title>画板 1</title><path id="_复合路径_" data-name="&lt;复合路径&gt;" class="cls-1" d="M324,34.83c160.4,0,290.43,130.9,290.43,292.38S484.42,619.6,324,619.6,33.59,488.69,33.59,327.21,163.62,34.83,324,34.83Z"/><path id="_路径_" data-name="&lt;路径&gt;" class="cls-2" d="M512.38,175.41c-1.1,11.31-3.89,22.2-9.69,30.08-45.7,62.05-112.25,35.08-245.13,18.29-62.45-7.89-144.35,9.53-168.18,78.35A113.6,113.6,0,0,0,84,325.88C82,456.31,183.33,564.46,313.5,568.92c132.44,4.54,244.53-100,250.34-233.49A240.12,240.12,0,0,0,512.38,175.41Z"/><g id="_编组_" data-name="&lt;编组&gt;" class="cls-3"><path id="_路径_2" data-name="&lt;路径&gt;" class="cls-4" d="M313.5,568.92c100.18,3.43,188.69-55.54,228.39-142.24a591.33,591.33,0,0,0-76.82-20.11c-155-29.75-294,5.33-324.26,78.7A236.06,236.06,0,0,0,313.5,568.92Z"/></g><g id="_编组_2" data-name="&lt;编组&gt;" class="cls-3"><path id="_路径_3" data-name="&lt;路径&gt;" class="cls-4" d="M84.06,325.44c0,.15,0,.3,0,.44C82,456.31,183.33,564.46,313.5,568.92a238.69,238.69,0,0,0,103-19.42A583.94,583.94,0,0,0,374,484C280.35,358.59,155.07,291.54,84.06,325.44Z"/></g><path class="cls-5" d="M2614.89,404.35c0-26.75,14.26-47,32.33-72.69,2.39-3.41,4.82-6.85,7.26-10.39l-24.1-33.9c-23.36,36.48-55.22,68.36-55.22,118.29A78.27,78.27,0,0,0,2608.65,470c4.79-18.36,18.15-29.24,23.47-33A39.7,39.7,0,0,1,2614.89,404.35Z"/><path class="cls-5" d="M2654.5,220.18h0c-1.21,26.18-11.41,47.37-24.1,67.19l24.1,33.9v0c2.44,3.53,4.88,7,7.26,10.41,18.08,25.66,32.35,45.94,32.35,72.69a39.52,39.52,0,0,1-62,32.72c-5.32,3.72-18.68,14.6-23.47,33a79.79,79.79,0,0,0,45.84,14.41c43.82-.06,79.33-34.62,79.33-78.46C2733.82,328.91,2657.92,294.53,2654.5,220.18Z"/><path class="cls-5" d="M2640.16,453.24a20.26,20.26,0,1,0-20.26,20.27A20.25,20.25,0,0,0,2640.16,453.24Z"/><path class="cls-5" d="M728.66,198.51H843l44.09,171.17,43.77-171.17H1045.1V479.83H973.91V265.29L919.05,479.83H854.61L799.85,265.29V479.83H728.66Z"/><path class="cls-5" d="M1072.93,276h82.41l42,135.68,39-135.68h77L1232.52,493.8q-13.82,37.24-28.19,50.3-20.34,18.43-62,18.44-16.89,0-52.18-4.6l-6.13-54.5a123.51,123.51,0,0,0,37.58,5.37q13.8,0,22.33-6.34t14.48-22.67Z"/><path class="cls-5" d="M1491.88,400l74.26,8.44a104,104,0,0,1-20.15,40.2A93.55,93.55,0,0,1,1510.21,475q-21.8,9.41-55.37,9.41-32.43,0-54-6a94.41,94.41,0,0,1-37.13-19.55,98.82,98.82,0,0,1-24.38-31.74q-8.82-18.21-8.82-48.31,0-31.44,10.74-52.35a94.71,94.71,0,0,1,21.5-27.5,99.11,99.11,0,0,1,28-18.13q22.83-9.39,58.52-9.39,49.9,0,76.1,17.85t36.74,52.19l-73.49,9.79q-3.46-13-12.57-19.67T1451.58,325q-19.38,0-31.38,13.89t-12,42.05q0,25.09,11.89,38.12t30.33,13q15.35,0,25.8-7.87T1491.88,400Z"/><path class="cls-5" d="M1602.79,276h73.12v33.4q10.54-21.69,21.78-29.85t27.73-8.15q17.26,0,37.8,10.74L1739,337.83q-13.82-5.76-21.87-5.76-15.36,0-23.8,12.66-12.09,17.85-12.09,66.79v68.31h-78.49Z"/><path class="cls-5" d="M2004.25,479.83h-72.92v-33q-16.3,20.34-32.91,29t-40.78,8.63q-32.23,0-50.56-19.29t-18.33-59.39V276h78.48V388.1q0,19.2,7.1,27.25t20,8.06a28.45,28.45,0,0,0,22.93-10.74q8.94-10.74,8.93-38.58V276h78.1Z"/><path class="cls-5" d="M2266.19,198.51V479.83h-73.11V449.71q-15.36,19.19-28,25.9a79.87,79.87,0,0,1-37.61,8.83q-41.64,0-63.62-31.66t-22-77q0-50.65,24.28-77.52t61.7-26.87a86.05,86.05,0,0,1,33.1,6.14A75.42,75.42,0,0,1,2187.32,296V198.51ZM2187.9,377.36q0-24-10.17-35.79a32.48,32.48,0,0,0-25.72-11.8q-13.62,0-22.83,11.32t-9.21,38q0,25,9.49,36.56T2153,427.25q15,0,25-11.7T2187.9,377.36Z"/><path class="cls-5" d="M2540,397.32H2383.45q2.12,18.8,10.17,28,11.33,13.23,29.55,13.23a44.37,44.37,0,0,0,21.88-5.75q6.33-3.65,13.63-12.86l77,7.1q-17.67,30.7-42.61,44t-71.57,13.34q-40.5,0-63.71-11.42t-38.48-36.26Q2304,411.91,2304,378.32q0-47.79,30.61-77.34t84.54-29.55q43.74,0,69.08,13.24a89.46,89.46,0,0,1,38.57,38.38Q2540,348.21,2540,388.49ZM2460.6,359.9q-2.31-22.65-12.19-32.44t-26-9.78q-18.6,0-29.74,14.77-7.1,9.23-9,27.45Z"/><path class="cls-5" d="M2763.09,198.51h78.11v53.15h-78.11Zm0,77.52h78.11v203.8h-78.11Z"/><path class="cls-5" d="M2893.78,198.51h78.29V479.83h-78.29Z"/></svg>
